<svg xmlns="http://www.w3.org/2000/svg" viewBox="0 0 24 24" fill="#C13584" width="50px" height="50px">
  <path d="M12 2.163c3.204 0 3.584.012 4.85.07 1.17.054 1.97.24 2.435.402a4.92 4.92 0 0 1 1.75 1.01 4.92 4.92 0 0 1 1.01 1.751c.162.464.348 1.264.402 2.434.058 1.268.07 1.648.07 4.852 0 3.204-.012 3.584-.07 4.85-.054 1.17-.24 1.97-.402 2.435a4.92 4.92 0 0 1-1.01 1.75 4.92 4.92 0 0 1-1.751 1.01c-.464.162-1.264.348-2.434.402-1.268.058-1.648.07-4.852.07s-3.584-.012-4.85-.07c-1.17-.054-1.97-.24-2.435-.402a4.92 4.92 0 0 1-1.75-1.01 4.92 4.92 0 0 1-1.01-1.751c-.162-.464-.348-1.264-.402-2.434C2.175 15.586 2.163 15.206 2.163 12s.012-3.584.07-4.85c.054-1.17.24-1.97.402-2.435a4.92 4.92 0 0 1 1.01-1.75 4.92 4.92 0 0 1 1.751-1.01c.464-.162 1.264-.348 2.434-.402C8.416 2.175 8.796 2.163 12 2.163zm0 1.837c-3.192 0-3.568.011-4.82.07-1.064.049-1.637.218-2.02.362a3.08 3.08 0 0 0-1.157.751 3.08 3.08 0 0 0-.751 1.157c-.144.383-.313.956-.362 2.02-.059 1.252-.07 1.628-.07 4.82s.011 3.568.07 4.82c.049 1.064.218 1.637.362 2.02.144.383.343.703.751 1.157.383.383.703.607 1.157.751.383.144.956.313 2.02.362 1.252.059 1.628.07 4.82.07s3.568-.011 4.82-.07c1.064-.049 1.637-.218 2.02-.362a3.08 3.08 0 0 0 1.157-.751c.383-.383.607-.703.751-1.157.144-.383.313-.956.362-2.02.059-1.252.07-1.628.07-4.82s-.011-3.568-.07-4.82c-.049-1.064-.218-1.637-.362-2.02a3.08 3.08 0 0 0-.751-1.157 3.08 3.08 0 0 0-1.157-.751c-.383-.144-.956-.313-2.02-.362-1.252-.059-1.628-.07-4.82-.07zm0 4.351a5.486 5.486 0 1 1 0 10.972 5.486 5.486 0 0 1 0-10.972zm0 1.837a3.649 3.649 0 1 0 0 7.297 3.649 3.649 0 0 0 0-7.297zm5.457-.896a1.286 1.286 0 1 1 0-2.572 1.286 1.286 0 0 1 0 2.572z"/>
</svg>
