<svg xmlns="http://www.w3.org/2000/svg" viewBox="0 0 24 24" fill="#FF0000" width="50px" height="50px">
  <path d="M23.498 6.186a2.99 2.99 0 0 0-2.106-2.116C19.697 3.423 12 3.423 12 3.423s-7.697 0-9.392.647a2.99 2.99 0 0 0-2.106 2.116A30.245 30.245 0 0 0 0 12a30.245 30.245 0 0 0 .502 5.814 2.99 2.99 0 0 0 2.106 2.116c1.696.647 9.392.647 9.392.647s7.697 0 9.392-.647a2.99 2.99 0 0 0 2.106-2.116A30.245 30.245 0 0 0 24 12a30.245 30.245 0 0 0-.502-5.814zM9.545 15.568V8.432L15.818 12l-6.273 3.568z"/>
</svg>
